<svg width="28" height="28" viewBox="0 0 28 28" fill="none" xmlns="http://www.w3.org/2000/svg">
<path d="M21.875 3.52627C21.2047 3.52627 20.5485 3.78614 20.0427 4.29189L11.375 12.9325L11.1834 13.1241L11.1291 13.398L10.5271 16.4605L10.2541 17.745L11.5395 17.472L14.602 16.87L14.875 16.8158L15.0666 16.6241L23.7072 7.95639C24.0694 7.59332 24.3159 7.13116 24.4158 6.62817C24.5157 6.12519 24.4644 5.60389 24.2685 5.13C24.0725 4.65611 23.7406 4.25084 23.3147 3.96529C22.8888 3.67973 22.3878 3.52754 21.875 3.52627ZM21.875 5.22202C22.0797 5.22202 22.2819 5.32702 22.477 5.52214C22.8664 5.91239 22.8664 6.33589 22.477 6.72527L14 15.2031L12.4959 15.5041L12.7969 14L21.2739 5.52302C21.4681 5.32877 21.6702 5.22202 21.875 5.22202ZM3.5 6.99914V24.4991H21V12.9596L19.25 14.7096V22.7491H5.25V8.74914H13.2895L15.0395 6.99914H3.5Z" fill="#1A334F"/>
</svg>
