<svg width="124" height="124" viewBox="0 0 124 124" fill="none" xmlns="http://www.w3.org/2000/svg">
<path d="M15.5 23.25V100.75H108.5V38.75H58.8225L43.2915 23.25H15.5ZM11.625 15.5H46.4845L62.031 31H112.375C113.403 31 114.388 31.4083 115.115 32.135C115.842 32.8617 116.25 33.8473 116.25 34.875V104.625C116.25 105.653 115.842 106.638 115.115 107.365C114.388 108.092 113.403 108.5 112.375 108.5H11.625C10.5973 108.5 9.61166 108.092 8.88496 107.365C8.15826 106.638 7.75 105.653 7.75 104.625V19.375C7.75 18.3473 8.15826 17.3617 8.88496 16.635C9.61166 15.9083 10.5973 15.5 11.625 15.5ZM56.5208 69.75L45.5623 58.7915L51.0415 53.3123L62 64.2708L72.9585 53.3123L78.4378 58.7915L67.4792 69.75L78.4378 80.7085L72.9585 86.1878L62 75.2292L51.0415 86.1878L45.5623 80.7085L56.5208 69.75Z" fill="url(#paint0_linear_1652_816)"/>
<defs>
<linearGradient id="paint0_linear_1652_816" x1="62" y1="15.5" x2="62" y2="108.5" gradientUnits="userSpaceOnUse">
<stop stop-color="#1A334F"/>
<stop offset="1" stop-color="#005EC8"/>
</linearGradient>
</defs>
</svg>
