<svg width="32" height="27" viewBox="0 0 32 27" fill="none" xmlns="http://www.w3.org/2000/svg">
<path d="M30.519 0.0986328C30.9043 0.0986328 31.2739 0.251703 31.5463 0.524169C31.8188 0.796636 31.9719 1.16618 31.9719 1.55151V24.8076C31.9692 25.1892 31.8166 25.5544 31.5469 25.8243C31.2772 26.0943 30.9122 26.2473 30.5306 26.2503H4.35566C3.97329 26.25 3.6067 26.0978 3.33646 25.8273C3.06621 25.5568 2.91441 25.19 2.91441 24.8076L2.91441 23.3446H29.0661V6.34599L17.4431 16.8067L2.91441 3.73081V1.55151C2.91441 1.16618 3.06748 0.796636 3.33995 0.524169C3.61242 0.251703 3.98196 0.0986328 4.36729 0.0986328L30.519 0.0986328ZM11.6316 17.5331V20.4389H0.00866699L0.00866699 17.5331H11.6316ZM7.27303 10.2687V13.1745H0.00866699L0.00866699 10.2687H7.27303ZM28.4356 3.00438L6.4507 3.00438L17.4431 12.8984L28.4356 3.00438Z" fill="#1A334F"/>
</svg>
